<svg width="159" height="38" viewBox="0 0 159 38" xmlns="http://www.w3.org/2000/svg"><path d="M12.502 18.258h-1.764c-2.856 0-5.67-2.058-5.67-7.266 0-5.418 2.604-7.602 5.25-7.602h2.184v14.868zm-2.184 2.73h2.184V33h3.318V.618h-5.376c-4.83 0-8.904 3.696-8.904 10.374 0 4.326 1.596 7.56 5.544 9.45L.28 33h3.822l6.216-12.012zm47.418-7.518c1.344 0 2.226 1.932 2.436 5.208.042.714.042 1.47.042 1.47H54.67c.21-3.822 1.176-6.678 3.066-6.678zm26.208 8.736c0-4.368 1.344-8.736 3.738-8.736 1.008 0 2.016.714 2.814 1.596l1.722-2.898c-1.176-.84-2.646-1.386-4.494-1.386-4.158 0-7.308 4.872-7.308 12.264 0 6.678 2.94 10.416 7.224 10.416 2.016 0 3.57-.714 4.872-1.47l-.336-2.394c-.798.336-2.226.798-3.444.798-3.234 0-4.788-3.108-4.788-8.19zm-39.9 8.022h-6.006c2.226-3.654 2.856-10.5 2.856-15.792v-.42h3.15v16.212zm29.526-9.156l5.292-9.744h-3.57l-4.578 9.408-.378.42v-9.828h-3.36v21.63h3.36v-11.13l.378.462 5.166 10.668h3.738L73.57 21.072zm-45.024-9.744v8.526H23.59v-8.526h-3.36v21.63h3.36V22.626h4.956v10.332h3.318v-21.63h-3.318zm35.028 20.664l-.378-2.394c-.798.336-2.352.798-3.612.798-3.402 0-4.956-2.814-4.956-7.476h9.03v-1.848c0-6.72-2.352-10.29-5.796-10.29-4.662 0-6.72 5.88-6.72 12.264 0 6.552 2.898 10.416 7.224 10.416 2.142 0 3.822-.714 5.208-1.47zm-14.532-1.764h-1.68v-18.9h-9.408v1.848c0 5.208-.168 11.97-2.856 17.052h-1.302V37.2h2.982v-4.242h9.282V37.2h2.982v-6.972zm64.47 1.176h-9.492c1.134-1.386 1.806-4.41 2.184-8.988.336-4.158.546-9.702.672-16.968h6.636v25.956zm2.562 6.594h1.47v-6.594h-2.058V3.81H105.07c-.126 7.98-.252 14.364-.672 18.606-.42 4.326-1.134 7.77-2.604 8.988h-.882v6.594h1.512l.294-4.998h13.062l.294 4.998zm8.148-4.578c3.192 0 5.88-2.31 5.88-6.468 0-2.268-1.092-4.452-3.78-5.418 2.31-1.134 3.15-2.982 3.15-4.998 0-3.066-1.764-5.124-5.04-5.124-2.268 0-3.822 1.008-4.746 2.226l.504 1.806c.924-1.302 2.31-2.394 4.242-2.394 2.1 0 3.234 1.386 3.234 3.528 0 2.856-1.722 4.326-4.2 4.326h-1.554v1.512h1.806c3.15 0 4.452 1.848 4.452 4.578 0 3.15-1.764 4.788-3.99 4.788-2.898 0-4.368-2.268-4.368-2.268l-.63 1.554s1.638 2.352 5.04 2.352zm14.448-20.454c2.184 0 3.906 2.562 3.528 8.316h-7.77c.168-5.418 2.016-8.316 4.242-8.316zm.378 18.816c-3.066 0-4.578-3.192-4.662-9.03h9.576c.672-7.518-1.68-11.34-5.292-11.34-3.528 0-6.132 4.074-6.132 11.004s2.058 11.004 6.51 11.004c3.318 0 4.914-2.352 4.914-2.352l-.63-1.554s-1.428 2.268-4.242 2.268h-.042zM156.898 33h1.89V11.832h-1.89v9.408h-7.308v-9.408h-1.89V33h1.89V22.752h7.308V33z" fill="#000" fill-rule="evenodd"/></svg>
